<svg xmlns="http://www.w3.org/2000/svg" version="1.1" xmlns:xlink="http://www.w3.org/1999/xlink" xmlns:svgjs="http://svgjs.dev/svgjs" width="1000" height="623" viewBox="0 0 1000 623"><g transform="matrix(1,0,0,1,-0.6060606060606233,0.2522267206477409)"><svg viewBox="0 0 396 247" data-background-color="#ffffff" preserveAspectRatio="xMidYMid meet" height="623" width="1000" xmlns="http://www.w3.org/2000/svg" xmlns:xlink="http://www.w3.org/1999/xlink"><g id="tight-bounds" transform="matrix(1,0,0,1,0.2400000000000091,-0.09999999999999432)"><svg viewBox="0 0 395.52 247.2" height="247.2" width="395.52"><g><svg></svg></g><g><svg viewBox="0 0 395.52 247.2" height="247.2" width="395.52"><mask id="ff00e681-0c40-4b82-9b0f-231aa893bede"><rect width="640" height="400" fill="white"></rect><g transform="matrix(1,0,0,1,39.55199999999999,94.65427291242362)"><svg viewBox="0 0 316.416 57.891454175152745" height="57.891454175152745" width="316.416"><g><svg viewBox="0 0 316.416 57.891454175152745" height="57.891454175152745" width="316.416"><g><svg viewBox="0 0 316.416 57.891454175152745" height="57.891454175152745" width="316.416"><g><svg viewBox="0 0 316.416 57.891454175152745" height="57.891454175152745" width="316.416"><g id="SvgjsG1054"><svg viewBox="0 0 316.416 57.891454175152745" height="57.891454175152745" width="316.416" id="SvgjsSvg1053"><g><svg viewBox="0 0 316.416 57.891454175152745" height="57.891454175152745" width="316.416"><g transform="matrix(1,0,0,1,0,0)"><svg width="316.416" viewBox="0.5500001907348633 -39 295.57000732421875 54.900001525878906" height="57.891454175152745" data-palette-color="#398378"><path d="M8.3-2.05L8.3 11.9 4.55 11.9 4.55-24.95 6.75-24.95 8.05-22.15Q10.15-23.75 11.98-24.63 13.8-25.5 16-25.5L16-25.5Q25-25.5 25-12.55L25-12.55Q25-5.2 21.8-2.3L21.8-2.3Q18.95 0.35 15.33 0.35 11.7 0.35 8.3-2.05L8.3-2.05ZM8.3-18.8L8.3-18.8 8.3-5.45Q9.3-4.25 11-3.55 12.7-2.85 14.25-2.85L14.25-2.85Q18.15-2.85 19.7-5.15 21.25-7.45 21.25-12.35 21.25-17.25 19.7-19.75 18.15-22.25 15.75-22.25L15.75-22.25Q14.15-22.25 12.58-21.6 11-20.95 10.23-20.38 9.45-19.8 8.3-18.8ZM35.6-19.1L35.6-19.1 35.6 0 31.85 0 31.85-25 34.25-25 34.85-22.05Q37.25-23.95 38.85-24.73 40.45-25.5 42.5-25.5L42.5-25.5Q43.5-25.5 44-25.4L44-25.4 44.7-25.2 44.1-21.75Q43.2-22.05 41.65-22.05L41.65-22.05Q38.65-22.05 35.6-19.1ZM65.84-12.33Q65.84-17.15 63.95-19.7 62.05-22.25 58.39-22.25 54.74-22.25 53.22-19.83 51.7-17.4 51.7-12.4L51.7-12.4Q51.7-2.95 58.64-2.95L58.64-2.95Q62.3-2.95 64.07-5.23 65.84-7.5 65.84-12.33ZM66.75-3.1Q63.89 0.3 58.7 0.3 53.49 0.3 50.72-3.08 47.95-6.45 47.95-12.53 47.95-18.6 50.62-22.05 53.3-25.5 58.47-25.5 63.64-25.5 66.62-22 69.59-18.5 69.59-12.5 69.59-6.5 66.75-3.1ZM86.84-25.55L86.84-25.55Q91.64-25.55 93.69-22.15L93.69-22.15Q97.94-25.55 101.54-25.55 105.14-25.55 107.42-23.53 109.69-21.5 109.69-17.65L109.69-17.65 109.69 0 106.04 0 106.04-16.1Q106.04-19.15 104.67-20.73 103.29-22.3 100.99-22.3L100.99-22.3Q97.84-22.3 94.64-19.8L94.64-19.8Q94.89-18.7 94.89-17.65L94.89-17.65 94.89 0 91.24 0 91.24-16.1Q91.24-19.15 89.87-20.73 88.49-22.3 86.19-22.3L86.19-22.3Q84.69-22.3 83.44-21.9 82.19-21.5 81.59-21.1 80.99-20.7 80.04-19.9L80.04-19.9 80.04 0 76.29 0 76.29-25 78.69-25 79.34-22.45Q80.59-23.5 81.27-23.98 81.94-24.45 83.49-25 85.04-25.55 86.84-25.55ZM122.54-2.05L122.54 11.9 118.79 11.9 118.79-24.95 120.99-24.95 122.29-22.15Q124.39-23.75 126.22-24.63 128.04-25.5 130.24-25.5L130.24-25.5Q139.24-25.5 139.24-12.55L139.24-12.55Q139.24-5.2 136.04-2.3L136.04-2.3Q133.19 0.35 129.56 0.35 125.94 0.35 122.54-2.05L122.54-2.05ZM122.54-18.8L122.54-18.8 122.54-5.45Q123.54-4.25 125.24-3.55 126.94-2.85 128.49-2.85L128.49-2.85Q132.39-2.85 133.94-5.15 135.49-7.45 135.49-12.35 135.49-17.25 133.94-19.75 132.39-22.25 129.99-22.25L129.99-22.25Q128.39-22.25 126.82-21.6 125.24-20.95 124.47-20.38 123.69-19.8 122.54-18.8ZM146.69-5.4L146.69-5.4 146.69-22 143.29-22 143.29-25 146.74-25 146.74-32.15 150.49-32.15 150.49-25 156.59-25 156.59-22 150.44-22 150.44-6.1Q150.44-2.75 153.84-2.75L153.84-2.75Q154.64-2.75 156.29-3.05L156.29-3.05 156.84-0.35Q154.79 0.3 152.61 0.3 150.44 0.3 148.56-1.03 146.69-2.35 146.69-5.4ZM170.99 0L166.69 0 159.39-25 163.29-25 168.84-3.95 173.99-25 177.69-25 183.24-3.75 188.34-25 192.24-25 185.39 0 180.99 0 175.84-19.75 170.99 0ZM200.38 0L196.63 0 196.63-25 200.38-25 200.38 0ZM196.63-35L200.38-35 200.38-30.55 196.63-30.55 196.63-35ZM206.63-21.75L206.63-25 221.98-25 221.98-22 210.98-3.25 222.58-3.25 222.58 0 206.63 0 206.63-3 217.63-21.75 206.63-21.75ZM240.58-14.95L240.58-14.95 242.63-14.95Q242.63-19.5 241.48-20.88 240.33-22.25 236.38-22.25 232.43-22.25 229.68-21.2L229.68-21.2 228.98-24.1Q233.18-25.5 237.68-25.5L237.68-25.5Q246.48-25.5 246.48-16.7L246.48-16.7 246.48 0 244.28 0 242.98-2.95Q240.68-1.05 239-0.38 237.33 0.3 235.13 0.3L235.13 0.3Q231.63 0.3 229.68-1.78 227.73-3.85 227.73-7.25L227.73-7.25Q227.73-14.95 240.58-14.95ZM242.68-6.55L242.68-11.8 240.43-11.8Q235.33-11.8 233.4-10.8 231.48-9.8 231.48-7.68 231.48-5.55 232.58-4.2 233.68-2.85 235.45-2.85 237.23-2.85 238.85-3.68 240.48-4.5 242.68-6.55L242.68-6.55ZM259.33-19.1L259.33-19.1 259.33 0 255.58 0 255.58-25 257.98-25 258.58-22.05Q260.98-23.95 262.58-24.73 264.18-25.5 266.23-25.5L266.23-25.5Q267.23-25.5 267.73-25.4L267.73-25.4 268.43-25.2 267.83-21.75Q266.93-22.05 265.38-22.05L265.38-22.05Q262.38-22.05 259.33-19.1ZM288.37-23L288.37-35 292.12-35 292.12 0 289.92 0 288.67-2.85Q284.07 0.4 280.67 0.4L280.67 0.4Q271.67 0.4 271.67-12.55L271.67-12.55Q271.67-19.9 274.87-22.8L274.87-22.8Q277.72-25.45 281.32-25.45 284.92-25.45 288.37-23L288.37-23ZM288.37-6.2L288.37-6.2 288.37-19.2Q287.32-20.45 285.6-21.35 283.87-22.25 282.42-22.25L282.42-22.25Q278.52-22.25 276.97-19.95 275.42-17.65 275.42-12.75 275.42-7.85 276.97-5.35 278.52-2.85 280.92-2.85L280.92-2.85Q284.52-2.85 288.37-6.2Z" opacity="1" transform="matrix(1,0,0,1,0,0)" fill="black" class="wordmark-text-0" id="SvgjsPath1052" stroke-width="7" stroke="black" stroke-linejoin="round"></path></svg></g></svg></g></svg></g></svg></g></svg></g></svg></g></svg></g></mask><g transform="matrix(1,0,0,1,39.55199999999999,94.65427291242362)"><svg viewBox="0 0 316.416 57.891454175152745" height="57.891454175152745" width="316.416"><g><svg viewBox="0 0 316.416 57.891454175152745" height="57.891454175152745" width="316.416"><g><svg viewBox="0 0 316.416 57.891454175152745" height="57.891454175152745" width="316.416"><g><svg viewBox="0 0 316.416 57.891454175152745" height="57.891454175152745" width="316.416"><g id="textblocktransform"><svg viewBox="0 0 316.416 57.891454175152745" height="57.891454175152745" width="316.416" id="textblock"><g><svg viewBox="0 0 316.416 57.891454175152745" height="57.891454175152745" width="316.416"><g transform="matrix(1,0,0,1,0,0)"><svg width="316.416" viewBox="0.5500001907348633 -39 295.57000732421875 54.900001525878906" height="57.891454175152745" data-palette-color="#398378"><path d="M8.3-2.05L8.3 11.9 4.55 11.9 4.55-24.95 6.75-24.95 8.05-22.15Q10.15-23.75 11.98-24.63 13.8-25.5 16-25.5L16-25.5Q25-25.5 25-12.55L25-12.55Q25-5.2 21.8-2.3L21.8-2.3Q18.95 0.35 15.33 0.35 11.7 0.35 8.3-2.05L8.3-2.05ZM8.3-18.8L8.3-18.8 8.3-5.45Q9.3-4.25 11-3.55 12.7-2.85 14.25-2.85L14.25-2.85Q18.15-2.85 19.7-5.15 21.25-7.45 21.25-12.35 21.25-17.25 19.7-19.75 18.15-22.25 15.75-22.25L15.75-22.25Q14.15-22.25 12.58-21.6 11-20.95 10.23-20.38 9.45-19.8 8.3-18.8ZM35.6-19.1L35.6-19.1 35.6 0 31.85 0 31.85-25 34.25-25 34.85-22.05Q37.25-23.95 38.85-24.73 40.45-25.5 42.5-25.5L42.5-25.5Q43.5-25.5 44-25.4L44-25.4 44.7-25.2 44.1-21.75Q43.2-22.05 41.65-22.05L41.65-22.05Q38.65-22.05 35.6-19.1ZM65.84-12.33Q65.84-17.15 63.95-19.7 62.05-22.25 58.39-22.25 54.74-22.25 53.22-19.83 51.7-17.4 51.7-12.4L51.7-12.4Q51.7-2.95 58.64-2.95L58.64-2.95Q62.3-2.95 64.07-5.23 65.84-7.5 65.84-12.33ZM66.75-3.1Q63.89 0.3 58.7 0.3 53.49 0.3 50.72-3.08 47.95-6.45 47.95-12.53 47.95-18.6 50.62-22.05 53.3-25.5 58.47-25.5 63.64-25.5 66.62-22 69.59-18.5 69.59-12.5 69.59-6.5 66.75-3.1ZM86.84-25.55L86.84-25.55Q91.64-25.55 93.69-22.15L93.69-22.15Q97.94-25.55 101.54-25.55 105.14-25.55 107.42-23.53 109.69-21.5 109.69-17.65L109.69-17.65 109.69 0 106.04 0 106.04-16.1Q106.04-19.15 104.67-20.73 103.29-22.3 100.99-22.3L100.99-22.3Q97.84-22.3 94.64-19.8L94.64-19.8Q94.89-18.7 94.89-17.65L94.89-17.65 94.89 0 91.24 0 91.24-16.1Q91.24-19.15 89.87-20.73 88.49-22.3 86.19-22.3L86.19-22.3Q84.69-22.3 83.44-21.9 82.19-21.5 81.59-21.1 80.99-20.7 80.04-19.9L80.04-19.9 80.04 0 76.29 0 76.29-25 78.69-25 79.34-22.45Q80.59-23.5 81.27-23.98 81.94-24.45 83.49-25 85.04-25.55 86.84-25.55ZM122.54-2.05L122.54 11.9 118.79 11.9 118.79-24.95 120.99-24.95 122.29-22.15Q124.39-23.75 126.22-24.63 128.04-25.5 130.24-25.5L130.24-25.5Q139.24-25.5 139.24-12.55L139.24-12.55Q139.24-5.2 136.04-2.3L136.04-2.3Q133.19 0.35 129.56 0.35 125.94 0.35 122.54-2.05L122.54-2.05ZM122.54-18.8L122.54-18.8 122.54-5.45Q123.54-4.25 125.24-3.55 126.94-2.85 128.49-2.85L128.49-2.85Q132.39-2.85 133.94-5.15 135.49-7.45 135.49-12.35 135.49-17.25 133.94-19.75 132.39-22.25 129.99-22.25L129.99-22.25Q128.39-22.25 126.82-21.6 125.24-20.95 124.47-20.38 123.69-19.8 122.54-18.8ZM146.69-5.4L146.69-5.4 146.69-22 143.29-22 143.29-25 146.74-25 146.74-32.15 150.49-32.15 150.49-25 156.59-25 156.59-22 150.44-22 150.44-6.1Q150.44-2.75 153.84-2.75L153.84-2.75Q154.64-2.75 156.29-3.05L156.29-3.05 156.84-0.35Q154.79 0.3 152.61 0.3 150.44 0.3 148.56-1.03 146.69-2.35 146.69-5.4ZM170.99 0L166.69 0 159.39-25 163.29-25 168.84-3.95 173.99-25 177.69-25 183.24-3.75 188.34-25 192.24-25 185.39 0 180.99 0 175.84-19.75 170.99 0ZM200.38 0L196.63 0 196.63-25 200.38-25 200.38 0ZM196.63-35L200.38-35 200.38-30.55 196.63-30.55 196.63-35ZM206.63-21.75L206.63-25 221.98-25 221.98-22 210.98-3.25 222.58-3.25 222.58 0 206.63 0 206.63-3 217.63-21.75 206.63-21.75ZM240.58-14.95L240.58-14.95 242.63-14.95Q242.63-19.5 241.48-20.88 240.33-22.25 236.38-22.25 232.43-22.25 229.68-21.2L229.68-21.2 228.98-24.1Q233.18-25.5 237.68-25.5L237.68-25.5Q246.48-25.5 246.48-16.7L246.48-16.7 246.48 0 244.28 0 242.98-2.95Q240.68-1.05 239-0.38 237.33 0.3 235.13 0.3L235.13 0.3Q231.63 0.3 229.68-1.78 227.73-3.85 227.73-7.25L227.73-7.25Q227.73-14.95 240.58-14.95ZM242.68-6.55L242.68-11.8 240.43-11.8Q235.33-11.8 233.4-10.8 231.48-9.8 231.48-7.68 231.48-5.55 232.58-4.2 233.68-2.85 235.45-2.85 237.23-2.85 238.85-3.68 240.48-4.5 242.68-6.55L242.68-6.55ZM259.33-19.1L259.33-19.1 259.33 0 255.58 0 255.58-25 257.98-25 258.58-22.05Q260.98-23.95 262.58-24.73 264.18-25.5 266.23-25.5L266.23-25.5Q267.23-25.5 267.73-25.4L267.73-25.4 268.43-25.2 267.83-21.75Q266.93-22.05 265.38-22.05L265.38-22.05Q262.38-22.05 259.33-19.1ZM288.37-23L288.37-35 292.12-35 292.12 0 289.92 0 288.67-2.85Q284.07 0.4 280.67 0.4L280.67 0.4Q271.67 0.4 271.67-12.55L271.67-12.55Q271.67-19.9 274.87-22.8L274.87-22.8Q277.72-25.45 281.32-25.45 284.92-25.45 288.37-23L288.37-23ZM288.37-6.2L288.37-6.2 288.37-19.2Q287.32-20.45 285.6-21.35 283.87-22.25 282.42-22.25L282.42-22.25Q278.52-22.25 276.97-19.95 275.42-17.65 275.42-12.75 275.42-7.85 276.97-5.35 278.52-2.85 280.92-2.85L280.92-2.85Q284.52-2.85 288.37-6.2Z" opacity="1" transform="matrix(1,0,0,1,0,0)" fill="#398378" class="wordmark-text-0" data-fill-palette-color="primary" id="text-0"></path></svg></g></svg></g></svg></g></svg></g></svg></g></svg></g></svg></g><g mask="url(#ff00e681-0c40-4b82-9b0f-231aa893bede)"><g transform="matrix(2.724413958855305, 0, 0, 2.724413958855305, 110.37639482590424, 1)"><svg xmlns="http://www.w3.org/2000/svg" xmlns:xlink="http://www.w3.org/1999/xlink" version="1.1" x="0" y="0" viewBox="17.968992233276367 3.6170010566711426 64.14855194091797 90.00100708007812" enable-background="new 0 0 100 100" xml:space="preserve" height="90.00100708007812" width="64.14855194091797" class="icon-none" data-fill-palette-color="accent" id="none"><path d="M79.928 81.346c1.489-0.864 1.996-2.772 1.132-4.261-0.864-1.489-2.772-1.996-4.261-1.132l-4.133 2.493-2.419-3.518 3.837-0.491-10.326-18.03c-0.127-1.799-1.609-3.224-3.44-3.226l-1.574-0.002 5.427-7.53 1.351-0.048c1.721-0.062 3.066-1.507 3.004-3.228-0.025-0.692-0.281-1.317-0.681-1.821l9.663-13.409c1.134 0.076 2.541-0.71 3.543-2.1 1.315-1.825 1.43-3.991 0.256-4.837-1.174-0.846-3.192-0.052-4.507 1.773-1.002 1.39-1.302 2.974-0.872 4.026L66.21 39.486c-0.292-0.078-0.595-0.129-0.913-0.117l-4.111 0.148 0.87-2.564c-2.955 0.558-11.418-2.178-11.418-2.178l-6.236-4.055c-0.842-0.547-1.846-0.624-2.726-0.317 1.01-0.704 2.385-0.772 3.481-0.059l4.827 3.139c-0.493-2.878-2.997-5.068-6.014-5.06-3.365 0.008-6.087 2.743-6.078 6.109l0.048 19.178c0 0-1.72 13.87-6.021 26.127l5.745-0.735-4.23 5.869c-5.882-3.597-9.829-10.062-9.829-17.447 0-8.023 4.654-14.962 11.393-18.313l-0.116-6.083c-9.866 3.727-16.913 13.241-16.913 24.395 0 9.264 4.857 17.411 12.154 22.043l-1.787 2.48c-0.315 0.436-0.216 1.045 0.221 1.359s1.045 0.216 1.359-0.221l1.896-2.63c3.656 1.953 7.826 3.064 12.252 3.064 7.985 0 15.134-3.613 19.925-9.281l-3.46-4.722c-3.728 5.062-9.71 8.367-16.465 8.367-3.195 0-6.21-0.757-8.907-2.069l5.153-7.15 22.985-2.942 6.007 8.738c0.975 1.419 2.917 1.778 4.335 0.803L79.928 81.346zM50.124 53.167l-0.027-11.052c2.943 2.263 7.161 5.78 7.605 7.667l1.34-3.949 2.663-0.096-5.361 7.439L50.124 53.167zM80.77 21.72c0.242 0.174 0.297 0.511 0.122 0.753-0.174 0.242-0.511 0.297-0.753 0.122-0.242-0.174-0.296-0.511-0.122-0.753C80.191 21.601 80.529 21.546 80.77 21.72zM49.643 20.765c0.046 0.285 0.076 0.575 0.076 0.872 0 3-2.432 5.432-5.432 5.432-3 0-5.432-2.432-5.432-5.432 0-0.298 0.03-0.588 0.076-0.872h-7.972l7.105-5.937c-0.652-1.623-0.457-6.269-0.457-6.269-3.065-1.106-8.153-4.942-8.153-4.942 4.566 1.844 7.827 0.885 7.827 0.885s1.239-0.369 6.522 3.909l5.087 6.712 10.207 5.642H49.643z" fill="#31c48d" data-fill-palette-color="accent"></path></svg></g></g></svg></g><defs></defs></svg><rect width="395.52" height="247.2" fill="none" stroke="none" visibility="hidden"></rect></g></svg></g></svg>